<svg width="495" height="496" viewBox="0 0 495 496" fill="none" xmlns="http://www.w3.org/2000/svg">
<g filter="url(#filter0_d)">
<path d="M227.6 1.33349C209.733 2.93349 208.667 3.20015 208.667 8.13349C208.667 14.2668 204.933 27.6002 201.067 35.0668C193.467 50.2668 176.933 62.4002 159.6 65.6002C144 68.5335 124.267 62.9335 110.133 51.6002L104.133 46.9335L96.1333 53.0668C85.8667 60.9335 64.5333 82.4002 56.4 92.8002L50.2667 100.8L54.9333 106.8C85.6 144.933 65.8667 196.4 17.3333 204.4L6.66667 206.134L5.6 213.467C4.13333 222.8 4.13333 266.8 5.6 275.2L6.66667 281.867L17.3333 283.6C45.0667 288.134 64.4 306.8 68.9333 333.067C70.2667 341.067 70.1333 344 68.2667 352.667C66 363.333 59.4667 376.533 53.3333 383.067L49.7333 386.8L55.6 394.267C67.3333 409.6 84 425.867 102.133 439.733C103.867 441.067 105.467 440.267 111.733 435.467C147.733 407.6 195.2 424.133 206.667 468.667C207.733 472.934 208.667 478.534 208.667 480.8V485.067L219.067 486.267C232.267 487.6 262.4 487.6 275.733 486.267L286 485.067V480.8C286 474.667 289.6 461.733 293.467 453.733C304 431.867 330 418.533 353.6 422.667C364.533 424.533 376.667 430 384.4 436.667L390.133 441.6L397.733 435.867C407.6 428.533 431.867 404.267 439.2 394.4L444.933 386.8L440 381.067C429.067 368.267 423.2 348.4 425.867 333.2C430.667 305.6 451.6 286.533 480.533 283.2L488.4 282.4L489.6 270.8C490.933 256 490.933 231.867 489.6 216.934L488.4 205.333H484.133C481.867 205.333 476.267 204.4 472 203.333C446.8 196.8 429.6 178.933 425.733 155.067C423.067 139.333 429.2 118.8 440 106.8L444.933 101.333L439.2 93.7335C431.333 83.4668 408.533 60.6668 398.4 52.9335L390.267 46.6668L384.4 51.6002C371.333 62.5335 351.867 68.2668 336.267 65.6002C308.933 61.0668 290 40.1335 286.133 10.0002L285.333 3.33349L279.333 2.53349C267.867 0.933492 240 0.266823 227.6 1.33349V1.33349ZM336.4 164.133C344.933 170.4 352.933 181.6 373.2 216.267C377.467 223.467 382 229.6 383.467 230C384.933 230.533 387.067 232.4 388.4 234.4C390.4 237.6 390.667 241.867 390.267 279.333C390 302.133 389.2 321.733 388.4 323.067C387.733 324.4 385.733 326 383.867 326.667C379.467 328.4 337.2 328.4 334 326.667C330.8 324.933 328.667 318.4 328.667 310.533V304H166.4L165.733 313.467C164.667 327.467 165.2 327.2 136.533 327.733C107.867 328.267 106.933 327.867 104.933 317.067C104.133 313.2 103.733 293.733 103.867 274C104 241.333 104.267 237.467 106.533 234.134C107.867 232 110 230.133 111.333 229.733C112.667 229.333 119.067 220 126 208.267C141.333 182.534 150.933 169.2 158.267 164L163.733 160H330.8L336.4 164.133V164.133ZM113.867 205.067C118.667 208.667 118.667 215.333 113.867 219.067C103.733 226.533 82.2667 223.333 79.8667 214C78.9333 210 82.1333 204.4 86.4 202.533C91.4667 200.4 109.867 202.133 113.867 205.067V205.067ZM411.467 204.8C414.933 207.867 415.733 213.067 413.467 216.667C410.667 221.067 403.333 223.067 392.667 222.4C385.2 222 382.8 221.333 380 218.667C370.667 209.867 382.4 200.533 401.2 202C405.733 202.4 410.133 203.6 411.467 204.8V204.8Z" fill="black"/>
</g>
<path d="M165.2 175.734C160.267 179.734 151.733 191.733 140.667 209.867C134.8 219.733 130 228.133 130 228.533C130 228.933 182.8 229.333 247.333 229.333C311.867 229.333 364.667 228.933 364.667 228.533C364.667 226.933 346.8 197.734 339.6 187.734C335.6 182 330.933 176.533 329.2 175.333C326.533 173.6 315.467 173.333 247.067 173.333C174.133 173.333 167.733 173.6 165.2 175.734V175.734ZM264.8 177.333C267.6 178.933 268.133 182.667 265.733 185.067C264 186.8 233.467 187.467 229.467 185.867C226.933 184.933 226.667 179.867 228.933 177.6C230.933 175.6 261.067 175.333 264.8 177.333V177.333ZM124.4 250.267C119.2 255.867 117.467 270.134 121.333 275.6C123.067 278 125.2 278.4 138.533 279.333C158.133 280.533 166.667 279.333 171.067 275.067C173.733 272.4 174.133 270.933 173.6 267.067C171.867 256.933 166.533 254 142.667 250.667C136.8 249.867 130.8 248.8 129.333 248.533C127.733 248.133 125.6 248.8 124.4 250.267ZM340.667 252.8C324.133 256.667 321.333 258.667 321.333 267.333C321.333 271.6 322.133 274 324.267 276.134C326.933 278.8 328.533 279.067 347.6 279.2C375.067 279.333 377.733 277.6 375.2 261.2C373.6 251.467 371.333 249.334 362.133 249.467C358 249.467 348.4 251.067 340.667 252.8V252.8ZM194 264C194 264.8 196.133 269.6 198.667 274.667L203.333 283.867L246 284.267C269.467 284.534 289.333 284.4 290 284.267C291.467 283.734 300.667 266.267 300.667 264C300.667 263.067 282.8 262.667 247.333 262.667C211.867 262.667 194 263.067 194 264Z" fill="black"/>
<defs>
<filter id="filter0_d" x="0.5" y="0.814972" width="494.1" height="494.452" filterUnits="userSpaceOnUse" color-interpolation-filters="sRGB">
<feFlood flood-opacity="0" result="BackgroundImageFix"/>
<feColorMatrix in="SourceAlpha" type="matrix" values="0 0 0 0 0 0 0 0 0 0 0 0 0 0 0 0 0 0 127 0" result="hardAlpha"/>
<feOffset dy="4"/>
<feGaussianBlur stdDeviation="2"/>
<feComposite in2="hardAlpha" operator="out"/>
<feColorMatrix type="matrix" values="0 0 0 0 0 0 0 0 0 0 0 0 0 0 0 0 0 0 0.25 0"/>
<feBlend mode="normal" in2="BackgroundImageFix" result="effect1_dropShadow"/>
<feBlend mode="normal" in="SourceGraphic" in2="effect1_dropShadow" result="shape"/>
</filter>
</defs>
</svg>
